<?xml version="1.0" encoding="utf-8" ?>
<svg version="1.1" id="pickle" xmlns="http://www.w3.org/2000/svg" xmlns:xlink="http://www.w3.org/1999/xlink" x="0px" y="0px" viewBox="0 0 32 32" style="enable-background:new 0 0 32 32;" xml:space="preserve">
  <path style="fill:#E7E44E;stroke:#668033;stroke-miterlimit:10;" d="M24.5,31.3h-19c-1.5,0-2.7-1.2-2.7-2.7v-20c0-1.5,1.2-2.7,2.7-2.7h19c1.5,0,2.7,1.2,2.7,2.7v20
	C27.2,30.1,26,31.3,24.5,31.3z" />
  <path style="fill:#668033;" d="M7.8,31.3c0,0,0.2-6.1,0.4-7.4c0.2-1.3,1.5-10.8,2.6-11.2s2.7-4.8,5.8-5.2s6.7,1.2,6.7,6.3
	c0,0,0.2,3.8-0.8,7.3s0.2,6.8,0.2,6.8l0.6,3.3H7.8z" />
  <path style="fill:#FFFFFF;" d="M23,18.7c0,1.8-1.4,3.2-3.2,3.2s-3.2-1.4-3.2-3.2c0-1.8,1.4-2.3,3.2-2.3S23,16.9,23,18.7z" />
  <path style="fill:#FFFFFF;" d="M15.3,18.7c0,1.8-1.4,3.2-3.2,3.2s-3.2-1.4-3.2-3.2c0-1.8,1.4-2.6,3.2-2.6S15.3,16.9,15.3,18.7z" />
  <path style="fill:#000" d="M16,22.3c0,0-0.3-0.1-0.3-0.1c-0.3-0.1-0.5-0.1-0.8-0.1c-1.1,0.1-1.4,1.1-2.1,1.6c-0.7,0.5-2,0.3-2.7-0.1c0,0,0,0.4,0,0.5
	c0.2,1.3,1.6,1.6,2.7,1.6c0.8,0,3.4-0.3,3.4-1.4c0,0.4,0.5,0.8,0.7,1c1.5,1,4.7,0.6,4.7-1.6c0,0.2-1.6,0.2-1.7,0.1
	c-0.5-0.1-0.9-0.3-1.2-0.6c-0.3-0.4-0.5-0.8-0.9-1C17.2,22,16.6,22.1,16,22.3z" />
  <circle style="fill:#000" cx="13" cy="18.7" r="1.6" />
  <circle style="fill:#000" cx="19.6" cy="18.7" r="1.6" />
  <path style="fill:#9B875D;stroke:#503D1D;stroke-width:0.25;stroke-miterlimit:10;" d="M16.3,7.2c0,0-4.9,0.3-6.4,0c0,0-5-0.3-6,1.8c0,0,3.2,3.3,11.5,3.7c0,0,12.5,0.3,15.3-3.1
	C30.6,9.6,31.8,6.1,16.3,7.2z" />
  <path style="fill:#9B875D;stroke:#503D1D;stroke-width:0.25;stroke-miterlimit:10;" d="M3.8,9c0,0,1.7,3.3,3.1,4.1c0,0,10.6,4.4,20.7-0.4c0,0,3-2.4,2.9-3.1c0,0-1.8,2.4-8.9,2.8
	c-7.1,0.4-10.7-0.3-10.7-0.3S5.3,10.9,3.8,9z" />
  <path style="fill:#9B875D;stroke:#503D1D;stroke-width:0.25;stroke-miterlimit:10;" d="M21.9,10.2c-0.7-0.5-3-8.7-3-8.7c-1.4-2.9-3.3-0.4-3.3-0.4c-0.1,0.4-2.7,8.8-2.7,8.8" />
  <line style="fill:#FFFFFF;stroke:#000000;stroke-linecap:round;stroke-miterlimit:10;" x1="9.6" y1="15.5" x2="15.3" y2="16.7" />
  <line style="fill:#FFFFFF;stroke:#000000;stroke-linecap:round;stroke-miterlimit:10;" x1="17.4" y1="16.9" x2="23.2" y2="15.9" />
  <path style="fill:#FFEB76;stroke:#503D1D;stroke-width:0.25;stroke-miterlimit:10;" d="M13.2,8.7c0,0,4.7,1.4,8,0l1,1.9c0,0-6,1.8-9.8-0.4L13.2,8.7z" />
</svg>
